<?xml version="1.0" encoding="UTF-8" standalone="no"?>
<svg
   xmlns:dc="http://purl.org/dc/elements/1.1/"
   xmlns:cc="http://creativecommons.org/ns#"
   xmlns:rdf="http://www.w3.org/1999/02/22-rdf-syntax-ns#"
   xmlns:svg="http://www.w3.org/2000/svg"
   xmlns="http://www.w3.org/2000/svg"
   xmlns:sodipodi="http://sodipodi.sourceforge.net/DTD/sodipodi-0.dtd"
   xmlns:inkscape="http://www.inkscape.org/namespaces/inkscape"
   width="900.76886"
   height="483.30142"
   viewBox="98 247 506.61815 265.68036"
   id="svg3265"
   version="1.1"
   inkscape:version="0.48.2 r9819"
   sodipodi:docname="states.svg">
  <metadata
     id="metadata3473">
    <rdf:RDF>
      <cc:Work
         rdf:about="">
        <dc:format>image/svg+xml</dc:format>
        <dc:type
           rdf:resource="http://purl.org/dc/dcmitype/StillImage" />
      </cc:Work>
    </rdf:RDF>
  </metadata>
  <defs
     id="defs3471" />
  <sodipodi:namedview
     pagecolor="#ffffff"
     bordercolor="#666666"
     borderopacity="1"
     objecttolerance="10"
     gridtolerance="10"
     guidetolerance="10"
     inkscape:pageopacity="0"
     inkscape:pageshadow="2"
     inkscape:window-width="1920"
     inkscape:window-height="1023"
     id="namedview3469"
     showgrid="false"
     inkscape:object-paths="true"
     inkscape:zoom="1.431635"
     inkscape:cx="607.08147"
     inkscape:cy="243.23991"
     inkscape:window-x="0"
     inkscape:window-y="0"
     inkscape:window-maximized="1"
     inkscape:current-layer="g3409"
     fit-margin-top="0"
     fit-margin-left="0"
     fit-margin-right="0"
     fit-margin-bottom="0"
     inkscape:snap-object-midpoints="true" />
  <g
     id="g3267"
     transform="matrix(0.60909058,0,0,0.60909058,37.700033,90.766962)">
    <ellipse
       style="fill:#ffffff"
       cx="268.06699"
       cy="352.034"
       rx="48.067299"
       ry="32.0336"
       id="ellipse3269"
       d="m 316.13428,352.034 c 0,17.69167 -21.52046,32.0336 -48.06729,32.0336 -26.54684,0 -48.0673,-14.34193 -48.0673,-32.0336 0,-17.69167 21.52046,-32.0336 48.0673,-32.0336 26.54683,0 48.06729,14.34193 48.06729,32.0336 z"
       sodipodi:cx="268.06699"
       sodipodi:cy="352.034"
       sodipodi:rx="48.067299"
       sodipodi:ry="32.0336" />
    <ellipse
       style="fill:none;stroke:#000000;stroke-width:2"
       cx="268.06699"
       cy="352.034"
       rx="48.067299"
       ry="32.0336"
       id="ellipse3271"
       d="m 316.13428,352.034 c 0,17.69167 -21.52046,32.0336 -48.06729,32.0336 -26.54684,0 -48.0673,-14.34193 -48.0673,-32.0336 0,-17.69167 21.52046,-32.0336 48.0673,-32.0336 26.54683,0 48.06729,14.34193 48.06729,32.0336 z"
       sodipodi:cx="268.06699"
       sodipodi:cy="352.034"
       sodipodi:rx="48.067299"
       sodipodi:ry="32.0336" />
    <text
       style="font-size:12.80000019px;font-style:normal;font-weight:normal;text-anchor:middle;fill:#000000;font-family:sanserif"
       x="268.06699"
       y="355.93399"
       id="text3273">
      <tspan
         x="268.06699"
         y="355.93399"
         id="tspan3275">Splash</tspan>
    </text>
  </g>
  <g
     id="g3277"
     transform="matrix(0.60909058,0,0,0.60909058,37.700033,90.766962)">
    <ellipse
       style="fill:#ffffff"
       cx="394.39999"
       cy="487.20001"
       rx="54.400101"
       ry="27.200001"
       id="ellipse3279"
       d="m 448.80009,487.20001 c 0,15.02215 -24.35575,27.2 -54.4001,27.2 -30.04434,0 -54.4001,-12.17785 -54.4001,-27.2 0,-15.02214 24.35576,-27.2 54.4001,-27.2 30.04435,0 54.4001,12.17786 54.4001,27.2 z"
       sodipodi:cx="394.39999"
       sodipodi:cy="487.20001"
       sodipodi:rx="54.400101"
       sodipodi:ry="27.200001" />
    <ellipse
       style="fill:none;stroke:#000000;stroke-width:2"
       cx="394.39999"
       cy="487.20001"
       rx="54.400101"
       ry="27.200001"
       id="ellipse3281"
       d="m 448.80009,487.20001 c 0,15.02215 -24.35575,27.2 -54.4001,27.2 -30.04434,0 -54.4001,-12.17785 -54.4001,-27.2 0,-15.02214 24.35576,-27.2 54.4001,-27.2 30.04435,0 54.4001,12.17786 54.4001,27.2 z"
       sodipodi:cx="394.39999"
       sodipodi:cy="487.20001"
       sodipodi:rx="54.400101"
       sodipodi:ry="27.200001" />
    <text
       style="font-size:12.80000019px;font-style:normal;font-weight:normal;text-anchor:middle;fill:#000000;font-family:sanserif"
       x="394.39999"
       y="491.10001"
       id="text3283">
      <tspan
         x="394.39999"
         y="491.10001"
         id="tspan3285">Main Menu</tspan>
    </text>
  </g>
  <g
     id="g3287"
     transform="matrix(0.60909058,0,0,0.60909058,37.700033,90.766962)">
    <ellipse
       style="fill:#ffffff"
       cx="518.70001"
       cy="329.35001"
       rx="58.700298"
       ry="29.3501"
       id="ellipse3289"
       d="m 577.40031,329.35001 c 0,16.20961 -26.28102,29.3501 -58.7003,29.3501 -32.41928,0 -58.7003,-13.14049 -58.7003,-29.3501 0,-16.20962 26.28102,-29.3501 58.7003,-29.3501 32.41928,0 58.7003,13.14048 58.7003,29.3501 z"
       sodipodi:cx="518.70001"
       sodipodi:cy="329.35001"
       sodipodi:rx="58.700298"
       sodipodi:ry="29.3501" />
    <ellipse
       style="fill:none;stroke:#000000;stroke-width:2"
       cx="518.70001"
       cy="329.35001"
       rx="58.700298"
       ry="29.3501"
       id="ellipse3291"
       d="m 577.40031,329.35001 c 0,16.20961 -26.28102,29.3501 -58.7003,29.3501 -32.41928,0 -58.7003,-13.14049 -58.7003,-29.3501 0,-16.20962 26.28102,-29.3501 58.7003,-29.3501 32.41928,0 58.7003,13.14048 58.7003,29.3501 z"
       sodipodi:cx="518.70001"
       sodipodi:cy="329.35001"
       sodipodi:rx="58.700298"
       sodipodi:ry="29.3501" />
    <text
       style="font-size:12.80000019px;font-style:normal;font-weight:normal;text-anchor:middle;fill:#000000;font-family:sanserif"
       x="518.70001"
       y="333.25"
       id="text3293">
      <tspan
         x="518.70001"
         y="333.25"
         id="tspan3295">Settings</tspan>
    </text>
  </g>
  <g
     id="g3297"
     transform="matrix(0.60909058,0,0,0.60909058,37.700033,90.766962)">
    <ellipse
       style="fill:#ffffff"
       cx="161.47301"
       cy="470.70099"
       rx="61.472698"
       ry="30.701099"
       id="ellipse3299"
       d="m 222.94571,470.70099 c 0,16.95575 -27.52227,30.7011 -61.4727,30.7011 -33.95044,0 -61.4727,-13.74535 -61.4727,-30.7011 0,-16.95575 27.52226,-30.7011 61.4727,-30.7011 33.95043,0 61.4727,13.74535 61.4727,30.7011 z"
       sodipodi:cx="161.47301"
       sodipodi:cy="470.70099"
       sodipodi:rx="61.472698"
       sodipodi:ry="30.701099" />
    <ellipse
       style="fill:none;stroke:#000000;stroke-width:2"
       cx="161.47301"
       cy="470.70099"
       rx="61.472698"
       ry="30.701099"
       id="ellipse3301"
       d="m 222.94571,470.70099 c 0,16.95575 -27.52227,30.7011 -61.4727,30.7011 -33.95044,0 -61.4727,-13.74535 -61.4727,-30.7011 0,-16.95575 27.52226,-30.7011 61.4727,-30.7011 33.95043,0 61.4727,13.74535 61.4727,30.7011 z"
       sodipodi:cx="161.47301"
       sodipodi:cy="470.70099"
       sodipodi:rx="61.472698"
       sodipodi:ry="30.701099" />
    <text
       style="font-size:12.80000019px;font-style:normal;font-weight:normal;text-anchor:middle;fill:#000000;font-family:sanserif"
       x="161.47301"
       y="474.60101"
       id="text3303">
      <tspan
         x="161.47301"
         y="474.60101"
         id="tspan3305">Easter Egg?</tspan>
    </text>
  </g>
  <g
     id="g3307"
     transform="matrix(0.60909058,0,0,0.60909058,37.700033,90.766962)">
    <ellipse
       style="fill:#ffffff"
       cx="506.215"
       cy="653.10699"
       rx="66.214798"
       ry="33.107399"
       id="ellipse3309"
       d="m 572.42979,653.10699 c 0,18.28472 -29.64537,33.1074 -66.21479,33.1074 -36.56943,0 -66.2148,-14.82268 -66.2148,-33.1074 0,-18.28471 29.64537,-33.10739 66.2148,-33.10739 36.56942,0 66.21479,14.82268 66.21479,33.10739 z"
       sodipodi:cx="506.215"
       sodipodi:cy="653.10699"
       sodipodi:rx="66.214798"
       sodipodi:ry="33.107399" />
    <ellipse
       style="fill:none;stroke:#000000;stroke-width:2"
       cx="506.215"
       cy="653.10699"
       rx="66.214798"
       ry="33.107399"
       id="ellipse3311"
       d="m 572.42979,653.10699 c 0,18.28472 -29.64537,33.1074 -66.21479,33.1074 -36.56943,0 -66.2148,-14.82268 -66.2148,-33.1074 0,-18.28471 29.64537,-33.10739 66.2148,-33.10739 36.56942,0 66.21479,14.82268 66.21479,33.10739 z"
       sodipodi:cx="506.215"
       sodipodi:cy="653.10699"
       sodipodi:rx="66.214798"
       sodipodi:ry="33.107399" />
    <text
       style="font-size:12.80000019px;font-style:normal;font-weight:normal;text-anchor:middle;fill:#000000;font-family:sanserif"
       x="506.215"
       y="657.00702"
       id="text3313">
      <tspan
         x="506.215"
         y="657.00702"
         id="tspan3315">Score Table</tspan>
    </text>
  </g>
  <g
     id="g3317"
     transform="matrix(0.60909058,0,0,0.60909058,37.700033,90.766962)">
    <ellipse
       style="fill:#ffffff"
       cx="835.61798"
       cy="487.80899"
       rx="55.618"
       ry="27.809"
       id="ellipse3319"
       d="m 891.23598,487.80899 c 0,15.35849 -24.90103,27.809 -55.618,27.809 -30.71697,0 -55.618,-12.45051 -55.618,-27.809 0,-15.35849 24.90103,-27.809 55.618,-27.809 30.71697,0 55.618,12.45051 55.618,27.809 z"
       sodipodi:cx="835.61798"
       sodipodi:cy="487.80899"
       sodipodi:rx="55.618"
       sodipodi:ry="27.809" />
    <ellipse
       style="fill:none;stroke:#000000;stroke-width:2"
       cx="835.61798"
       cy="487.80899"
       rx="55.618"
       ry="27.809"
       id="ellipse3321"
       d="m 891.23598,487.80899 c 0,15.35849 -24.90103,27.809 -55.618,27.809 -30.71697,0 -55.618,-12.45051 -55.618,-27.809 0,-15.35849 24.90103,-27.809 55.618,-27.809 30.71697,0 55.618,12.45051 55.618,27.809 z"
       sodipodi:cx="835.61798"
       sodipodi:cy="487.80899"
       sodipodi:rx="55.618"
       sodipodi:ry="27.809" />
    <text
       style="font-size:12.80000019px;font-style:normal;font-weight:normal;text-anchor:middle;fill:#000000;font-family:sanserif"
       x="835.61798"
       y="491.70901"
       id="text3323">
      <tspan
         x="835.61798"
         y="491.70901"
         id="tspan3325">Level</tspan>
    </text>
  </g>
  <g
     id="g3327"
     transform="matrix(0.60909058,0,0,0.60909058,37.700033,90.766962)">
    <path
       style="fill:none;stroke:#000000;stroke-width:2"
       d="M 237.07,316.523 C 204.49028,286.13855 155.64524,275.78984 111.73646,268.26173"
       id="path3329"
       inkscape:connector-curvature="0"
       sodipodi:nodetypes="cc" />
    <polygon
       style="fill:#000000"
       points="242.474,321.715 231.894,318.101 237.21,316.373 239.017,311.083 "
       id="polygon3331" />
    <polygon
       style="fill:none;stroke:#000000;stroke-width:2"
       points="242.474,321.715 231.894,318.101 237.21,316.373 239.017,311.083 "
       id="polygon3333" />
  </g>
  <g
     id="g3335"
     transform="matrix(0.60909058,0,0,0.60909058,37.700033,90.766962)">
    <path
       style="fill:none;stroke:#000000;stroke-width:2"
       d="m 229.928,457.292 a 93.0486,93.0486 0 0 0 42.067,-72.33"
       id="path3337"
       inkscape:connector-curvature="0" />
    <polygon
       style="fill:#000000"
       points="223.53,461.137 230.151,452.128 230.205,457.718 234.71,461.028 "
       id="polygon3339" />
    <polygon
       style="fill:none;stroke:#000000;stroke-width:2"
       points="223.53,461.137 230.151,452.128 230.205,457.718 234.71,461.028 "
       id="polygon3341" />
  </g>
  <g
     id="g3343"
     transform="matrix(0.60909058,0,0,0.60909058,37.700033,90.766962)">
    <path
       style="fill:none;stroke:#000000;stroke-width:2"
       d="m 378.744,450.962 a 220.194,220.194 0 0 0 -72.083,-78.6"
       id="path3345"
       inkscape:connector-curvature="0" />
    <polygon
       style="fill:#000000"
       points="382.218,457.601 373.343,450.802 378.933,450.859 382.332,446.421 "
       id="polygon3347" />
    <polygon
       style="fill:none;stroke:#000000;stroke-width:2"
       points="382.218,457.601 373.343,450.802 378.933,450.859 382.332,446.421 "
       id="polygon3349" />
  </g>
  <g
     id="g3351"
     transform="matrix(0.60909058,0,0,0.60909058,37.700033,90.766962)">
    <path
       style="fill:none;stroke:#000000;stroke-width:2"
       d="M 468.269,356.106 A 186.197,186.197 0 0 0 399.326,459.135"
       id="path3353"
       inkscape:connector-curvature="0" />
    <polygon
       style="fill:#000000"
       points="474.351,351.733 468.818,361.449 468.117,355.903 463.259,353.136 "
       id="polygon3355" />
    <polygon
       style="fill:none;stroke:#000000;stroke-width:2"
       points="474.351,351.733 468.818,361.449 468.117,355.903 463.259,353.136 "
       id="polygon3357" />
  </g>
  <g
     id="g3359"
     transform="matrix(0.60909058,0,0,0.60909058,37.700033,90.766962)">
    <path
       style="fill:none;stroke:#000000;stroke-width:2"
       d="M 439.013,460.511 A 215.185,215.185 0 0 0 510.907,359.423"
       id="path3361"
       inkscape:connector-curvature="0" />
    <polygon
       style="fill:#000000"
       points="433.022,465.012 438.305,455.159 439.148,460.685 444.075,463.326 "
       id="polygon3363" />
    <polygon
       style="fill:none;stroke:#000000;stroke-width:2"
       points="433.022,465.012 438.305,455.159 439.148,460.685 444.075,463.326 "
       id="polygon3365" />
  </g>
  <g
     id="g3367"
     transform="matrix(0.60909058,0,0,0.60909058,37.700033,90.766962)">
    <path
       style="fill:none;stroke:#000000;stroke-width:2"
       d="m 400.202,515.22 a 229.395,229.395 0 0 0 60.67,103.34"
       id="path3369"
       inkscape:connector-curvature="0" />
    <polygon
       style="fill:#000000"
       points="466.3,623.727 455.523,620.749 460.727,618.707 462.216,613.319 "
       id="polygon3371" />
    <polygon
       style="fill:none;stroke:#000000;stroke-width:2"
       points="466.3,623.727 455.523,620.749 460.727,618.707 462.216,613.319 "
       id="polygon3373" />
  </g>
  <g
     id="g3375"
     transform="matrix(0.60909058,0,0,0.60909058,37.700033,90.766962)">
    <path
       style="fill:none;stroke:#000000;stroke-width:2"
       d="m 500.549,619.216 a 204.336,204.336 0 0 0 -64.2,-103.927"
       id="path3377"
       inkscape:connector-curvature="0" />
    <polygon
       style="fill:#000000"
       points="430.605,510.478 441.556,512.728 436.501,515.114 435.376,520.59 "
       id="polygon3379" />
    <polygon
       style="fill:none;stroke:#000000;stroke-width:2"
       points="430.605,510.478 441.556,512.728 436.501,515.114 435.376,520.59 "
       id="polygon3381" />
  </g>
  <g
     id="g3383"
     transform="matrix(0.60909058,0,0,0.60909058,37.700033,90.766962)">
    <ellipse
       style="fill:#ffffff"
       cx="726.08698"
       cy="653.04401"
       rx="66.087402"
       ry="33.043701"
       id="ellipse3385"
       d="m 792.17438,653.04401 c 0,18.24953 -29.58834,33.0437 -66.0874,33.0437 -36.49907,0 -66.08741,-14.79417 -66.08741,-33.0437 0,-18.24954 29.58834,-33.0437 66.08741,-33.0437 36.49906,0 66.0874,14.79416 66.0874,33.0437 z"
       sodipodi:cx="726.08698"
       sodipodi:cy="653.04401"
       sodipodi:rx="66.087402"
       sodipodi:ry="33.043701" />
    <ellipse
       style="fill:none;stroke:#000000;stroke-width:2"
       cx="726.08698"
       cy="653.04401"
       rx="66.087402"
       ry="33.043701"
       id="ellipse3387"
       d="m 792.17438,653.04401 c 0,18.24953 -29.58834,33.0437 -66.0874,33.0437 -36.49907,0 -66.08741,-14.79417 -66.08741,-33.0437 0,-18.24954 29.58834,-33.0437 66.08741,-33.0437 36.49906,0 66.0874,14.79416 66.0874,33.0437 z"
       sodipodi:cx="726.08698"
       sodipodi:cy="653.04401"
       sodipodi:rx="66.087402"
       sodipodi:ry="33.043701" />
    <text
       style="font-size:12.80000019px;font-style:normal;font-weight:normal;text-anchor:middle;fill:#000000;font-family:sanserif"
       x="726.08698"
       y="656.94397"
       id="text3389">
      <tspan
         x="726.08698"
         y="656.94397"
         id="tspan3391">Enter Name</tspan>
    </text>
  </g>
  <g
     id="g3393"
     transform="matrix(0.60909058,0,0,0.60909058,37.700033,90.766962)">
    <path
       style="fill:none;stroke:#000000;stroke-width:2"
       d="M 791.684,630.301 A 122.923,122.923 0 0 0 842.397,516.403"
       id="path3395"
       inkscape:connector-curvature="0" />
    <polygon
       style="fill:#000000"
       points="785.479,634.477 791.476,625.041 791.908,630.614 796.626,633.613 "
       id="polygon3397" />
    <polygon
       style="fill:none;stroke:#000000;stroke-width:2"
       points="785.479,634.477 791.476,625.041 791.908,630.614 796.626,633.613 "
       id="polygon3399" />
  </g>
  <g
     id="g3401"
     transform="matrix(0.60909058,0,0,0.60909058,37.700033,90.766962)">
    <path
       style="fill:none;stroke:#000000;stroke-width:2"
       d="M 557.738,682.967 A 170.425,170.425 0 0 0 683.73,679.288"
       id="path3403"
       inkscape:connector-curvature="0" />
    <polygon
       style="fill:#000000"
       points="550.754,680.261 561.917,679.625 557.643,683.228 557.961,688.809 "
       id="polygon3405" />
    <polygon
       style="fill:none;stroke:#000000;stroke-width:2"
       points="550.754,680.261 561.917,679.625 557.643,683.228 557.961,688.809 "
       id="polygon3407" />
  </g>
  <g
     id="g3409"
     transform="matrix(0.60909058,0,0,0.60909058,37.700033,90.766962)">
    <path
       style="fill:none;stroke:#000000;stroke-width:2"
       d="m 881.655,514.097 c 28.45356,13.49094 43.11063,0.14461 42.29997,-17.65017 -0.17659,-3.87624 -3.79294,-25.8529 -39.21856,-21.6951"
       id="path3411"
       inkscape:connector-curvature="0"
       sodipodi:nodetypes="csc" />
    <polygon
       style="fill:#000000"
       points="878.329,520.25 876.293,509.257 886.31,514.224 880.813,515.242 "
       id="polygon3413"
       transform="matrix(0.90207658,-0.43157599,0.43157599,0.90207658,-135.33861,429.39438)" />
    <polygon
       style="fill:none;stroke:#000000;stroke-width:2"
       points="878.329,520.25 876.293,509.257 886.31,514.224 880.813,515.242 "
       id="polygon3415"
       transform="matrix(0.90207658,-0.43157599,0.43157599,0.90207658,-135.33861,429.39438)" />
  </g>
  <ellipse
     style="fill:#000000"
     cx="109"
     cy="258"
     rx="10"
     ry="10"
     id="ellipse3417"
     sodipodi:cx="109"
     sodipodi:cy="258"
     sodipodi:rx="10"
     sodipodi:ry="10"
     transform="matrix(0.60909058,0,0,0.60909058,39.366786,97.017287)" />
  <g
     id="g3419"
     transform="matrix(0.60909058,0,0,0.60909058,37.700033,90.766962)">
    <ellipse
       style="fill:#ffffff"
       cx="736.79102"
       cy="326.82001"
       rx="56.7906"
       ry="26.819799"
       id="ellipse3421"
       d="m 793.58162,326.82001 c 0,14.81216 -25.42602,26.8198 -56.7906,26.8198 -31.36459,0 -56.7906,-12.00764 -56.7906,-26.8198 0,-14.81217 25.42601,-26.8198 56.7906,-26.8198 31.36458,0 56.7906,12.00763 56.7906,26.8198 z"
       sodipodi:cx="736.79102"
       sodipodi:cy="326.82001"
       sodipodi:rx="56.7906"
       sodipodi:ry="26.819799" />
    <ellipse
       style="fill:none;stroke:#000000;stroke-width:2"
       cx="736.79102"
       cy="326.82001"
       rx="56.7906"
       ry="26.819799"
       id="ellipse3423"
       d="m 793.58162,326.82001 c 0,14.81216 -25.42602,26.8198 -56.7906,26.8198 -31.36459,0 -56.7906,-12.00764 -56.7906,-26.8198 0,-14.81217 25.42601,-26.8198 56.7906,-26.8198 31.36458,0 56.7906,12.00763 56.7906,26.8198 z"
       sodipodi:cx="736.79102"
       sodipodi:cy="326.82001"
       sodipodi:rx="56.7906"
       sodipodi:ry="26.819799" />
    <text
       style="font-size:12.80000019px;font-style:normal;font-weight:normal;text-anchor:middle;fill:#000000;font-family:sanserif"
       x="736.79102"
       y="330.72"
       id="text3425">
      <tspan
         x="736.79102"
         y="330.72"
         id="tspan3427">Pause Menu</tspan>
    </text>
  </g>
  <g
     id="g3429"
     transform="matrix(0.60909058,0,0,0.60909058,37.700033,90.766962)">
    <path
       style="fill:none;stroke:#000000;stroke-width:2"
       d="m 743.572,363.991 a 213.267,213.267 0 0 0 60.852,99.921"
       id="path3431"
       inkscape:connector-curvature="0" />
    <polygon
       style="fill:#000000"
       points="741.695,356.737 748.787,365.38 743.358,364.05 739.036,367.596 "
       id="polygon3433" />
    <polygon
       style="fill:none;stroke:#000000;stroke-width:2"
       points="741.695,356.737 748.787,365.38 743.358,364.05 739.036,367.596 "
       id="polygon3435" />
  </g>
  <g
     id="g3437"
     transform="matrix(0.60909058,0,0,0.60909058,37.700033,90.766962)">
    <path
       style="fill:none;stroke:#000000;stroke-width:2"
       d="m 694.458,300.208 a 164.35,164.35 0 0 0 -140.629,4.763"
       id="path3439"
       inkscape:connector-curvature="0" />
    <polygon
       style="fill:#000000"
       points="701.267,303.324 690.086,303.279 694.572,299.943 694.595,294.353 "
       id="polygon3441" />
    <polygon
       style="fill:none;stroke:#000000;stroke-width:2"
       points="701.267,303.324 690.086,303.279 694.572,299.943 694.595,294.353 "
       id="polygon3443" />
  </g>
  <g
     id="g3445"
     transform="matrix(0.60909058,0,0,0.60909058,37.700033,90.766962)">
    <path
       style="fill:none;stroke:#000000;stroke-width:2"
       d="M 836.243,449.319 A 146.932,146.932 0 0 0 776.166,346.978"
       id="path3447"
       inkscape:connector-curvature="0" />
    <polygon
       style="fill:#000000"
       points="836.93,456.773 831.447,447.03 836.563,449.282 841.435,446.54 "
       id="polygon3449" />
    <polygon
       style="fill:none;stroke:#000000;stroke-width:2"
       points="836.93,456.773 831.447,447.03 836.563,449.282 841.435,446.54 "
       id="polygon3451" />
  </g>
  <g
     id="g3453"
     transform="matrix(0.60909058,0,0,0.60909058,37.700033,90.766962)">
    <path
       style="fill:none;stroke:#000000;stroke-width:2"
       d="m 576.006,349.587 a 236.092,236.092 0 0 0 117.1,-4.734"
       id="path3455"
       inkscape:connector-curvature="0" />
    <polygon
       style="fill:#000000"
       points="568.7,347.916 579.63,345.564 575.964,349.784 577.141,355.249 "
       id="polygon3457" />
    <polygon
       style="fill:none;stroke:#000000;stroke-width:2"
       points="568.7,347.916 579.63,345.564 575.964,349.784 577.141,355.249 "
       id="polygon3459" />
  </g>
  <g
     id="g3461"
     transform="matrix(0.60909058,0,0,0.60909058,37.700033,90.766962)">
    <path
       style="fill:none;stroke:#000000;stroke-width:2"
       d="M 459.367,488.682 A 361.107,361.107 0 0 0 717.858,352.979"
       id="path3463"
       inkscape:connector-curvature="0" />
    <polygon
       style="fill:#000000"
       points="451.882,489.116 461.672,483.716 459.376,488.813 462.075,493.708 "
       id="polygon3465" />
    <polygon
       style="fill:none;stroke:#000000;stroke-width:2"
       points="451.882,489.116 461.672,483.716 459.376,488.813 462.075,493.708 "
       id="polygon3467" />
  </g>
</svg>
